<svg xmlns="http://www.w3.org/2000/svg" width="800" height="200" viewBox="0 0 800 200">
  <defs>
    <linearGradient id="g" x1="0%" y1="0%" x2="100%" y2="100%">
      <stop offset="0%" style="stop-color:#F97316"/>
      <stop offset="100%" style="stop-color:#EA580C"/>
    </linearGradient>
  </defs>
  <!-- Icon - exact same as favicon/header -->
  <g transform="translate(10,10)">
    <rect width="180" height="180" rx="45" fill="url(#g)"/>
    <g transform="translate(22.5,22.5) scale(5.625)">
      <path d="M2 13a2 2 0 0 0 2-2V7a2 2 0 0 1 4 0v13a2 2 0 0 0 4 0V4a2 2 0 0 1 4 0v13a2 2 0 0 0 4 0v-4a2 2 0 0 1 2-2" fill="none" stroke="white" stroke-width="2" stroke-linecap="round" stroke-linejoin="round"/>
    </g>
  </g>
  <!-- Text -->
  <text x="210" y="122" font-family="Inter, -apple-system, BlinkMacSystemFont, sans-serif" font-weight="700" font-size="72" fill="#0F172A">FreeVoice<tspan fill="#94A3B8" font-weight="400">.ai</tspan></text>
</svg>
